<?xml version="1.0" encoding="UTF-8"?>
<!DOCTYPE svg PUBLIC "-//W3C//DTD SVG 1.0//EN" "http://www.w3.org/TR/2001/REC-SVG-20010904/DTD/svg10.dtd">
<!-- Creator: CorelDRAW 2017 -->
<svg xmlns="http://www.w3.org/2000/svg" xml:space="preserve" width="356px" height="200px" version="1.0" shape-rendering="geometricPrecision" text-rendering="geometricPrecision" image-rendering="optimizeQuality" fill-rule="evenodd" clip-rule="evenodd"
viewBox="0 0 35600 20025"
 xmlns:xlink="http://www.w3.org/1999/xlink">
 <g id="Layer_x0020_1">
  <metadata id="CorelCorpID_0Corel-Layer"/>
  <g id="_2578093414016">
   <path fill="#E6E7E8" d="M0 0l35600 0 0 20025 -35600 0 0 -20025z"/>
   <path fill="#373435" fill-opacity="0.078431" d="M17175 6818l1295 -1197 -87 88 -82 92 -77 97 -73 101 -67 106 -66 123 -55 124 -44 127 -33 129 -20 132 -8 134 5 136 18 139 22 104 29 101 23 63 1994 -1844 -37 188 -36 187 -37 187 -36 188 -36 187 -37 187 -19 102 803 -743 7 -5 7 -3 10 -1 11 -1 62 1 63 0 62 0 62 0 63 1 62 0 62 1 63 2 29 1 29 3 29 3 29 4 29 5 29 5 28 7 21 5 1405 -1299 -4 4 -3 4 -4 5 -2 4 -1 5 -7 31 -7 32 -6 32 -7 32 -6 32 -6 32 -6 32 -6 32 -30 152 -30 153 -29 153 -30 153 -30 152 -30 153 -29 153 -30 152 -30 153 -29 153 -30 153 -10 50 790 -730 3 -1 2 -1 2 0 2 -1 2 0 2 -1 1 0 2 0 74 0 74 0 74 0 74 0 75 0 74 1 74 1 74 1 20 1 21 3 20 3 21 4 20 5 20 5 20 6 20 6 24 9 22 12 19 15 16 17 13 20 10 22 7 23 4 26 1 23 1 22 1 22 -1 23 0 22 -2 22 -2 22 -4 22 -28 149 -12 62 1140 -1054 -36 188 -37 187 -36 187 -36 187 -37 188 -36 187 -20 101 803 -742 6 -4 7 -3 9 -2 11 -1 62 1 62 0 63 0 62 0 62 1 63 0 62 1 63 2 28 1 29 2 28 3 29 4 28 5 28 5 28 6 28 7 61 20 52 25 45 30 35 37 29 43 20 49 13 56 6 63 0 76 -4 76 -10 74 -15 72 -19 72 -25 71 -29 69 -35 68 -41 63 -47 56 -723 668 7 0 91 -1 91 -2 92 -2 91 -3 76 -4 75 -8 75 -12 73 -16 73 -20 71 -26 69 -31 67 -37 170 -116 144 -130 -2413 2231 41 -5 98 -12 98 -13 98 -14 98 -15 97 -16 97 -17 97 -18 97 -19 97 -20 96 -22 97 -22 96 -24 95 -24 96 -26 106 -30 105 -31 105 -33 104 -34 103 -36 103 -37 102 -39 101 -41 101 -42 100 -44 99 -46 98 -48 97 -50 97 -53 95 -54 95 -57 123 -78 120 -82 116 -86 112 -91 108 -96 -2572 2378 1354 0 110 3 108 8 107 14 106 19 104 24 101 29 100 34 97 39 95 43 93 47 90 52 87 56 84 60 81 64 78 67 74 71 72 75 67 78 64 81 60 84 56 87 52 90 47 93 43 95 39 97 34 100 29 101 24 104 19 105 14 108 8 108 3 110 -4 125 -10 122 -18 121 -24 118 -31 116 -36 113 -43 111 -49 107 -175 163 116 44 137 51 145 53 150 55 149 55 146 54 138 53 126 49 111 45 91 39 69 33 40 25 -750 694 570 513 94 86 76 58 56 40 33 31 9 31 -18 40 -46 58 -77 86 -25 30 -17 24 -14 20 -12 17 -13 15 -17 16 -4185 3870 -25740 0 0 -7744 7391 -6832 110 -103 114 -100 115 -98 118 -95 120 -92 123 -89 125 -87 126 -83 129 -81 131 -77 133 -75 135 -71 137 -68 139 -65 140 -61 143 -58 144 -55 145 -51 148 -48 148 -44 151 -41 151 -37 154 -34 154 -29 156 -26 157 -22 159 -18 159 -14 161 -11 161 -6 163 -2 163 2 162 6 160 11 160 14 158 18 157 22 156 26 155 29 153 34 152 37 150 41 149 44 147 48 146 51 144 55 142 58 140 61 139 65 137 68 135 71 133 75 131 77 129 81 127 83 124 87 123 89 120 92 118 95 116 98 113 100 111 103 108 106 105 108 103 111 101 113 98 116 95 117 92 121 89 122 87 125 83 127 80 129 44 74z"/>
   <g>
    <path fill="#FEFEFE" d="M20660 13879l491 9 384 -1548c200,317 251,1227 454,1542 574,9 377,168 757,-1113 112,-380 224,-778 337,-1147l-440 -26 -411 1476 -414 -1473 -452 5 -398 1479c-145,-210 -372,-1152 -452,-1475l-552 -11 696 2282zm3222 3l462 3 412 -1554 422 1543 455 10 676 -2281 -409 -1c-135,230 -365,1158 -446,1481 -253,-386 -189,-1071 -443,-1477l-451 -7c-48,291 -261,1271 -397,1478l-435 -1476 -540 0 694 2281zm-6439 5l457 -3 421 -1554 419 1557 472 1 658 -2289 -415 6 -445 1476c-243,-351 -206,-1099 -443,-1478l-446 -1c-71,336 -260,1268 -402,1481l-427 -1484 -541 5 692 2283zm574 -3289l8885 0c590,0 1127,242 1515,630 389,389 631,926 631,1516 0,334 -78,651 -215,933 -193,-72 -337,-127 -356,-143l-41 -22c117,-232 182,-492 182,-768 0,-472 -193,-901 -504,-1212 -311,-311 -740,-504 -1212,-504l-10744 0c-472,0 -901,193 -1213,504 -311,311 -504,740 -504,1212 0,472 193,902 504,1213 312,311 741,504 1213,504l10744 0c79,0 158,-5 235,-16 71,133 143,265 216,397 -146,32 -297,48 -451,48l-10744 0c-131,0 -258,-11 -383,-34 -1093,912 -2500,1461 -4035,1461 -1741,0 -3317,-706 -4458,-1847 -1140,-1141 -1846,-2717 -1846,-4458 0,-1740 706,-3316 1846,-4457 1141,-1141 2717,-1847 4458,-1847 1741,0 3317,706 4458,1847 1141,1141 1846,2717 1846,4457 0,198 -9,393 -27,586zm8895 2974l1479 2713c135,-198 291,-859 434,-987l516 462c131,99 389,392 527,433 105,-60 77,-72 155,-160 246,-274 148,-157 -127,-430l-630 -567c-71,-60 -62,-38 -120,-111l930 -529c-137,-113 -1608,-597 -1730,-692l-1673 -618 239 486z"/>
    <path fill="#FEFEFE" fill-rule="nonzero" d="M28478 5981c-211,-305 -486,-544 -792,-749 -470,-315 -986,-534 -1525,-701 -748,-231 -1516,-350 -2297,-389 -734,-37 -1465,-2 -2191,115 -544,87 -1077,218 -1594,411 -474,177 -923,400 -1326,710 -265,203 -498,437 -669,727 -190,324 -270,670 -203,1044 50,281 175,527 348,751 212,275 473,494 762,683 494,324 1035,546 1600,710 891,260 1802,369 2729,370 353,1 705,-17 1056,-51 526,-52 1045,-143 1554,-284 566,-157 1109,-367 1611,-675 332,-204 634,-443 873,-755 234,-305 377,-643 369,-1035 -8,-327 -122,-617 -305,-882z"/>
    <path fill="#3A4C99" fill-rule="nonzero" d="M28478 5981c-211,-305 -486,-544 -792,-749 -470,-315 -986,-534 -1525,-701 -748,-231 -1516,-350 -2297,-389 -734,-37 -1465,-2 -2191,115 -544,87 -1077,218 -1594,411 -474,177 -923,400 -1326,710 -265,203 -498,437 -669,727 -190,324 -270,670 -203,1044 50,281 175,527 348,751 212,275 473,494 762,683 494,324 1035,546 1600,710 891,260 1802,369 2729,370 353,1 705,-17 1056,-51 526,-52 1045,-143 1554,-284 566,-157 1109,-367 1611,-675 332,-204 634,-443 873,-755 234,-305 377,-643 369,-1035 -8,-327 -122,-617 -305,-882zm-2111 103c-73,-19 -150,-31 -226,-33 -167,-6 -333,-2 -499,-5 -32,0 -40,13 -46,41 -57,301 -116,602 -175,904 -20,101 -39,202 -59,309 32,0 58,1 85,0 193,-6 387,-3 578,-23 198,-20 364,-111 466,-292 100,-179 144,-374 137,-578 -6,-178 -87,-278 -261,-323zm-5088 2c-75,-20 -154,-32 -231,-35 -166,-6 -333,-2 -499,-5 -33,0 -43,12 -48,42 -52,272 -106,544 -159,816 -25,129 -50,259 -76,396 97,0 186,3 275,0 130,-5 262,-5 391,-22 192,-26 356,-109 457,-284 107,-184 152,-385 142,-597 -7,-170 -88,-268 -252,-311zm251 1528l0 0c-175,103 -372,142 -572,150 -243,10 -486,7 -730,10 -17,0 -33,0 -54,0 -43,218 -84,429 -125,641 -9,44 -16,87 -26,130 -3,10 -18,23 -27,23 -206,1 -412,1 -618,0 -3,0 -5,-2 -11,-4 194,-995 387,-1991 582,-2991 15,0 29,0 43,0 408,0 816,0 1225,1 140,0 278,15 413,54 359,103 573,357 583,735 14,544 -208,970 -683,1251zm2818 119l0 0c-2,13 -6,25 -9,39 -217,0 -433,0 -656,0 11,-57 21,-112 32,-167 77,-396 155,-792 229,-1189 11,-57 10,-119 6,-178 -5,-71 -46,-123 -115,-144 -53,-16 -108,-32 -162,-33 -198,-4 -395,-3 -593,-3 -4,0 -8,2 -16,4 -29,148 -58,296 -87,445 -80,412 -160,823 -239,1235 -4,21 -10,32 -35,32 -199,-1 -398,0 -597,0 -6,0 -11,-3 -21,-5 17,-88 33,-176 51,-263 158,-815 316,-1630 475,-2444 16,-86 32,-171 51,-255 2,-11 17,-28 26,-28 206,-1 412,-1 625,-1 -51,266 -102,527 -154,795 18,0 33,0 48,0 239,3 478,2 717,9 142,4 282,31 414,88 192,82 284,232 295,436 8,129 -18,255 -42,380 -82,416 -162,832 -243,1247zm2283 -123l0 0c-176,107 -376,146 -579,154 -243,10 -487,8 -730,9 -43,0 -57,13 -64,54 -44,236 -91,471 -136,707 -5,22 -8,36 -36,36 -203,-1 -407,-1 -610,-1 -3,0 -5,-2 -13,-4 193,-996 387,-1992 581,-2992 17,0 31,0 45,0 407,0 814,0 1221,1 155,0 310,16 458,67 324,113 517,337 537,681 31,559 -190,996 -674,1288z"/>
    <path fill="#606062" d="M20660 13879l491 9 384 -1548c200,317 251,1227 454,1542 574,9 377,168 757,-1113 112,-380 224,-778 337,-1147l-440 -26 -411 1476 -414 -1473 -452 5 -398 1479c-145,-210 -372,-1152 -452,-1475l-552 -11 696 2282zm6252 -307l1479 2713c135,-198 291,-859 434,-987l516 462c131,99 389,392 527,433 105,-60 77,-72 155,-160 246,-274 148,-157 -127,-430l-630 -567c-71,-60 -62,-38 -120,-111l930 -529c-137,-113 -1608,-597 -1730,-692l-1673 -618 239 486zm-9643 -2974l292 0c19,-192 29,-388 29,-586 0,-1615 -655,-3078 -1713,-4136 -1059,-1059 -2521,-1713 -4137,-1713 -1615,0 -3078,654 -4136,1713 -1059,1058 -1714,2521 -1714,4136 0,1616 655,3078 1714,4137 1058,1058 2521,1713 4136,1713 1319,0 2536,-436 3514,-1172 -89,-42 -175,-90 -257,-143 -163,116 -329,223 -457,301 -46,28 -86,49 -132,75 -121,68 -282,151 -406,201 -52,21 -87,39 -143,62 -383,152 -685,245 -1096,323 -108,21 -304,82 -406,28 22,-31 53,-45 85,-67 31,-21 50,-36 82,-59 110,-75 472,-365 562,-456 26,-26 44,-44 70,-71 30,-29 47,-37 74,-67l143 -149c105,-106 174,-190 270,-304 167,-197 387,-517 543,-775 -112,-260 -174,-545 -174,-845 0,-85 5,-168 15,-251l-2 0 -2090 0 0 -2199 2589 0c0,221 -25,438 -52,630 -29,204 -63,376 -104,568 -9,39 -18,77 -27,114 86,-137 187,-264 301,-378 139,-139 297,-259 470,-356 29,-223 51,-448 51,-589l2123 0c0,97 -6,203 -17,315zm748 0l8885 0c590,0 1127,242 1515,630 389,389 631,926 631,1516 0,334 -78,651 -215,933 -193,-72 -337,-127 -356,-143l-41 -22c117,-232 182,-492 182,-768 0,-472 -193,-901 -504,-1212 -311,-311 -740,-504 -1212,-504l-10744 0c-472,0 -901,193 -1213,504 -311,311 -504,740 -504,1212 0,472 193,902 504,1213 312,311 741,504 1213,504l10744 0c79,0 158,-5 235,-16 71,133 143,265 216,397 -146,32 -297,48 -451,48l-10744 0c-131,0 -258,-11 -383,-34 -1093,912 -2500,1461 -4035,1461 -1741,0 -3317,-706 -4458,-1847 -1140,-1141 -1846,-2717 -1846,-4458 0,-1740 706,-3316 1846,-4457 1141,-1141 2717,-1847 4458,-1847 1741,0 3317,706 4458,1847 1141,1141 1846,2717 1846,4457 0,198 -9,393 -27,586zm-6071 -3142l0 2242 2600 0c-59,-701 -144,-1156 -351,-1783l-173 -444c-11,-25 -20,-47 -50,-47l-1994 0c-25,0 -32,7 -32,32zm-2264 -585l1690 0 0 -1819c-301,159 -876,684 -1056,916 -31,40 -66,76 -100,116 -116,137 -277,361 -369,508 -39,61 -151,218 -165,279zm2264 -22l1766 0c-90,-169 -285,-444 -408,-600 -214,-275 -443,-536 -706,-767 -126,-111 -556,-462 -652,-485l0 1852zm-574 8168l0 -1950 -1733 0c-49,0 -24,27 -9,51 19,31 27,42 45,76 116,213 323,505 473,696l162 195c81,106 427,440 523,529l124 103c78,66 347,282 415,300zm563 43c49,-26 97,-59 145,-93 28,-19 42,-31 69,-51 97,-73 315,-241 396,-319l124 -113c23,-22 37,-38 60,-60l178 -179c23,-29 27,-37 54,-65 274,-272 558,-690 764,-1024 17,-29 38,-53 41,-89l-1831 0 0 1993zm-4777 -8211l1809 0c18,-76 142,-283 185,-356 95,-168 167,-266 268,-415 21,-31 35,-53 58,-83 40,-52 75,-103 116,-154 103,-130 265,-322 383,-440l561 -534 303 -238c34,-26 144,-94 162,-119 -34,-13 -15,23 -21,-33 -104,3 -547,100 -645,124 -245,61 -619,191 -861,299l-515 264c-85,50 -162,96 -241,150l-861 688c-149,149 -232,259 -363,406 -42,48 -322,381 -338,441zm3845 8688c-15,-42 -118,-96 -157,-124 -61,-43 -110,-82 -166,-127 -51,-40 -109,-81 -156,-125 -30,-29 -47,-38 -76,-65 -32,-32 -51,-43 -81,-71 -215,-198 -474,-459 -662,-692l-164 -204c-181,-253 -297,-420 -454,-694 -34,-58 -185,-332 -196,-379l-1798 0c104,197 433,621 604,794 24,23 25,29 44,53 18,22 33,35 53,55 34,34 63,67 98,98 23,20 31,21 54,43 21,19 34,34 54,54l439 363c80,59 154,111 235,165 577,385 1302,699 1991,816 85,14 257,59 338,40zm1354 -11006l319 223c293,221 700,582 921,867l353 470c108,152 172,265 269,425l197 355 1906 0c-4,-45 -45,-90 -69,-126l-258 -337c-160,-184 -186,-217 -380,-412 -234,-236 -613,-518 -891,-700 -202,-132 -559,-320 -773,-409 -451,-186 -895,-331 -1388,-398 -60,-9 -121,-23 -184,-23 -4,10 7,23 -22,65zm-5600 7962l1874 0 -156 -504c-100,-350 -182,-736 -223,-1099l-54 -607 -2004 0c0,117 11,214 24,323 11,99 25,208 41,306 17,100 35,193 55,291 19,94 45,184 69,278 60,242 206,662 320,893 18,38 44,76 54,119zm-563 -2795l2004 0c14,-59 5,-95 14,-159 59,-444 48,-553 163,-1060 45,-194 90,-379 149,-556l160 -449c10,-26 22,-50 -20,-50l-1831 0c-59,0 -210,400 -243,482 -71,177 -130,350 -184,542 -99,349 -212,875 -212,1250zm8969 22l2123 0c0,-357 -106,-930 -202,-1260 -103,-358 -198,-612 -357,-932 -18,-35 -40,-104 -80,-104l-1950 0c-52,0 -19,35 7,102 202,523 345,1139 414,1698l34 323c4,60 11,123 11,173zm-5849 2773l2058 0 0 -2199 -2535 0c0,289 89,923 154,1179 66,261 133,526 230,777 29,77 75,167 93,243zm-477 -2773l2535 0 0 -2275 -1972 0c-39,0 -53,69 -68,105 -20,43 -34,81 -51,123 -34,86 -64,173 -96,261 -193,532 -246,909 -322,1455l-26 331zm8606 4167l457 -3 421 -1554 419 1557 472 1 658 -2289 -415 6 -445 1476c-243,-351 -206,-1099 -443,-1478l-446 -1c-71,336 -260,1268 -402,1481l-427 -1484 -541 5 692 2283zm6439 -5l462 3 412 -1554 422 1543 455 10 676 -2281 -409 -1c-135,230 -365,1158 -446,1481 -253,-386 -189,-1071 -443,-1477l-451 -7c-48,291 -261,1271 -397,1478l-435 -1476 -540 0 694 2281z"/>
   </g>
   <path fill="#373435" fill-opacity="0.031373" d="M2082 17547c68,103 112,202 155,312 32,64 49,183 199,183 44,0 107,-14 163,-45 63,-33 112,-83 136,-159l60 -202 146 -72 10 10c-20,76 -25,149 -25,206 0,169 146,233 263,233 68,0 128,-33 128,-95 0,-80 -34,-216 -77,-338 67,-68 135,-136 213,-192l12 7c34,144 53,286 53,381 0,93 -41,196 -75,264 -70,132 -194,237 -344,237 -114,0 -240,-57 -328,-163l-5 0c-82,101 -208,194 -412,194l-63 0c-10,134 -39,229 -83,314 -121,237 -480,404 -817,404 -471,0 -706,-272 -706,-633 0,-223 72,-431 184,-578l92 37c-70,134 -116,262 -116,386 0,338 274,499 592,499 293,0 657,-187 723,-404 -24,-237 -114,-349 -250,-565 41,-72 95,-145 160,-221l12 0zm5421 -1274c99,62 196,136 291,220 -53,75 -119,143 -201,202 -95,-76 -190,-142 -287,-212 66,-74 131,-146 197,-210zm51 926c-160,0 -291,105 -291,183 0,167 320,219 703,217 -48,-196 -216,-400 -412,-400zm-359 895c208,0 390,-7 529,-42 155,-39 286,-117 286,-171 0,-14 0,-31 -5,-45 -87,8 -187,8 -274,8 -281,0 -497,-64 -582,-223 -22,-43 -37,-92 -37,-148 0,-153 66,-303 182,-406 97,-85 204,-139 313,-139 197,0 355,159 464,409 60,136 102,293 102,491 0,132 -37,243 -119,325 -153,149 -435,205 -866,205l-197 0 0 0 -51 0c-107,0 -184,-19 -245,-66l-10 0c3,24 5,49 5,72 0,97 -31,221 -97,319 -192,287 -400,411 -580,411 -182,0 -405,-70 -606,-161l36 -70c66,27 155,45 279,45 325,0 752,-313 806,-618 -13,-25 -34,-58 -66,-93 -95,-114 -155,-208 -211,-307 49,-95 92,-172 133,-240l17 -2c139,283 265,446 546,446l44 0 0 0 204 0zm-1408 299c24,-130 27,-277 27,-413l0 -202c0,-377 -49,-926 -88,-1283 68,-74 163,-160 238,-218l22 6c51,449 63,971 63,1452 0,126 -5,249 -17,340 -7,114 -73,200 -214,332l-31 -14zm-1449 -596c7,177 94,317 398,317 189,0 349,-49 526,-134 32,-14 49,-33 49,-49 0,-112 -85,-258 -228,-392 -138,-126 -323,-237 -495,-311 -58,-25 -78,-52 -78,-77 0,-51 68,-159 124,-235l19 -2c197,103 418,256 580,427 148,157 240,315 240,489 0,128 -38,249 -101,361 -216,109 -447,191 -675,191 -277,0 -466,-129 -466,-435 0,-33 0,-84 12,-150l95 0zm-501 -503l173 278c63,103 121,214 121,392l0 227c0,183 -117,379 -306,573 -148,132 -279,188 -400,188 -180,0 -386,-56 -624,-159l27 -70c75,20 163,37 269,37 342,-2 692,-252 852,-557 19,-35 27,-68 27,-91 0,-35 -20,-74 -34,-109 -88,-165 -185,-316 -291,-454 55,-88 111,-173 172,-258l14 3z"/>
  </g>
 </g>
</svg>
