<?xml version="1.0" encoding="UTF-8"?>
<!DOCTYPE svg PUBLIC "-//W3C//DTD SVG 1.1//EN" "http://www.w3.org/Graphics/SVG/1.1/DTD/svg11.dtd">
<!-- Creator: CorelDRAW 2017 -->
<svg xmlns="http://www.w3.org/2000/svg" xml:space="preserve" width="3.70333in" height="2.08333in" version="1.1" style="shape-rendering:geometricPrecision; text-rendering:geometricPrecision; image-rendering:optimizeQuality; fill-rule:evenodd; clip-rule:evenodd"
viewBox="0 0 3703 2083"
 xmlns:xlink="http://www.w3.org/1999/xlink"
 enable-background="new 0 0 512 512">
 <defs>
  <style type="text/css">
   <![CDATA[
    .str0 {stroke:#052F45;stroke-width:10.4134}
    .fil6 {fill:#FEFEFE}
    .fil4 {fill:#00325A}
    .fil5 {fill:#01A0C8}
    .fil3 {fill:#074F77}
    .fil0 {fill:#E6E7E8}
    .fil7 {fill:#F0F0F0}
    .fil8 {fill:#FEFEFE}
    .fil9 {fill:#347AB4;fill-rule:nonzero}
    .fil10 {fill:#FFEA00;fill-rule:nonzero}
    .fil2 {fill:#373435;fill-opacity:0.031373}
    .fil1 {fill:#373435;fill-opacity:0.101961}
   ]]>
  </style>
 </defs>
 <g id="Layer_x0020_1">
  <metadata id="CorelCorpID_0Corel-Layer"/>
  <polygon class="fil0" points="0,0 3704,0 3704,2083 0,2083 "/>
  <path class="fil1" d="M2074 728l1 -3 1 -3 0 -1 0 -1 0 -1 0 -1 0 -1 0 -1 0 -1 0 -1 0 -4 0 -4 0 -4 0 -4 0 -4 0 -4 0 -4 0 -4 0 -4 0 -4 0 -4 0 -4 0 -4 0 -4 0 -4 0 -4 0 0 0 -1 0 -1 0 -1 0 -1 0 -1 0 -1 0 -1 0 -1 -1 -3 -1 -3 -1 -3 -1 -3 -1 -3 -1 -3 -1 -3 -1 -3 -1 -3 -1 -3 -1 -3 -1 -3 -1 -3 -1 -3 -2 -3 -2 -3 -2 -4 -3 -3 -3 -3 -3 -3 -3 -3 -3 -3 -4 -2 -4 -2 -3 -1 -3 -1 -3 -1 -3 -1 -3 -1 -3 0 -3 0 -3 0 -5 0 -5 0 -5 0 -5 0 -5 0 -5 0 -5 0 -5 0 0 0 0 0 0 0 0 0 0 0 0 0 0 0 0 0 -15 10 0 0 0 -6 0 -6 0 -6 0 -6 0 -6 0 -6 0 -6 0 -6 0 -6 0 -6 0 -2 0 -2 0 -2 0 -2 0 -2 0 -2 0 -2 0 -2 -1 -3 -1 -3 -1 -3 -1 -3 -2 -3 -2 -3 -2 -2 -2 -2 -3 -3 -3 -2 -3 -2 -3 -2 -3 -2 -3 -2 -4 -2 -4 -1 -4 -1 -4 -1 -4 -1 -4 -1 -4 -1 -4 -1 -4 -1 -4 -1 -4 -1 -4 -1 -4 0 -4 0 -4 0 -4 0 -4 0 -4 0 0 0 0 0 0 0 0 0 0 0 0 0 0 0 0 0 -2 0 -2 0 -2 0 -2 0 -2 0 -2 0 -2 0 -2 0 0 0 0 0 0 0 0 0 0 0 0 0 0 0 0 0 -4 0 -4 0 -4 0 -4 0 -4 0 -4 0 -4 0 -3 0 -5 1 -5 1 -5 1 -5 1 -5 1 -5 1 -5 2 -4 2 -3 1 -3 1 -3 1 -3 2 -3 2 -215 146 1 -3 3 -15 4 -15 5 -14 6 -14 6 -14 7 -13 7 -13 8 -13 9 -12 9 -12 10 -11 10 -11 11 -10 11 -10 12 -9 12 -9 -427 296 0 -3 1 -9 3 -8 4 -7 5 -6 6 -5 -1270 885 0 19 0 9 0 30 0 4 0 68 0 104 0 139 0 141 103 0 2 0 40 0 51 0 18 0 82 0 11 0 3 0 42 0 0 0 4 0 1 0 65 0 6 0 0 0 5 0 11 0 46 0 56 0 1 0 78 0 3 0 0 0 91 0 70 0 12 0 29 0 36 0 9 0 0 0 37 0 9 0 12 0 23 0 34 0 39 0 3 0 1 0 0 0 19 0 11 0 4 0 0 0 37 0 1 0 35 0 18 0 21 0 14 0 21 0 50 0 9 0 76 0 0 0 734 -376 -734 376 0 0 5 0 738 -377 -4 1 -4 0 0 0 -83 0 422 -218 -8 3 -9 1 -58 0 44 -23 4 -2 3 -3 3 -3 2 -4 1 -4 0 -4 0 -4 -1 -4 -1 -2 1 -2 1 -4 0 -4 0 -4 -1 -4 -2 -4 -3 -3 -3 -3 -4 -2 -4 -1 -4 0 -64 0 72 -38 4 -2 3 -3 3 -3 2 -4 1 -4 0 -4 0 -600 0 -4 -1 -4 -2 -4 -3 -3 -3 -3 -4 -2 -4 -1 -4 0 -314 0zm378 -6l0 0z"/>
  <path class="fil2" d="M218 1825c7,11 12,21 16,32 3,7 5,19 21,19 5,0 11,-2 17,-5 7,-3 11,-9 14,-17l6 -21 15 -8 1 1c-2,8 -3,15 -3,21 0,18 15,24 27,24 7,0 13,-3 13,-10 0,-8 -4,-23 -8,-35 7,-7 14,-14 22,-20l1 1c3,15 5,30 5,40 0,10 -4,20 -8,27 -7,14 -20,25 -36,25 -12,0 -25,-6 -34,-17l-1 0c-9,11 -22,20 -43,20l-7 0c-1,14 -4,24 -9,33 -13,25 -50,42 -85,42 -49,0 -73,-28 -73,-66 0,-23 8,-45 19,-60l10 4c-7,14 -12,27 -12,40 0,35 29,52 61,52 31,0 68,-20 75,-42 -3,-25 -12,-36 -26,-59 4,-8 10,-15 17,-23l1 0 0 0 0 0 0 0zm563 -132c10,6 20,14 30,23 -6,8 -12,15 -21,21 -10,-8 -20,-15 -30,-22 7,-8 14,-15 21,-22l0 0zm5 96c-17,0 -30,11 -30,19 0,17 33,23 73,23 -5,-20 -22,-42 -43,-42l0 0zm-37 93c22,0 41,-1 55,-4 16,-4 30,-12 30,-18 0,-2 0,-3 -1,-5 -9,1 -19,1 -29,1 -29,0 -52,-7 -60,-23 -2,-4 -4,-10 -4,-15 0,-16 7,-31 19,-42 10,-9 21,-14 33,-14 20,0 37,17 48,42 6,14 11,30 11,51 0,14 -4,25 -12,34 -16,15 -45,21 -90,21l-21 0 0 0 -5 0c-11,0 -19,-2 -25,-7l-1 0c0,3 1,5 1,8 0,10 -3,23 -10,33 -20,30 -42,43 -60,43 -19,0 -42,-7 -63,-17l4 -7c7,3 16,5 29,5 34,0 78,-33 84,-64 -1,-3 -3,-6 -7,-10 -10,-12 -16,-22 -22,-32 5,-10 10,-18 14,-25l2 0c14,29 28,46 57,46l4 0 0 0 21 0 0 0 0 0 0 0zm-146 31c3,-14 3,-29 3,-43l0 -21c0,-39 -5,-96 -9,-133 7,-8 17,-17 25,-23l2 1c5,47 7,101 7,151 0,13 -1,26 -2,35 -1,12 -8,21 -22,35l-3 -1 0 0 0 0zm-151 -62c1,18 10,33 41,33 20,0 36,-5 55,-14 3,-2 5,-3 5,-5 0,-12 -9,-27 -24,-41 -14,-13 -34,-25 -51,-32 -6,-3 -8,-5 -8,-8 0,-5 7,-17 13,-24l2 0c20,11 43,27 60,44 15,16 25,33 25,51 0,13 -4,26 -11,38 -23,11 -46,20 -70,20 -29,0 -48,-13 -48,-45 0,-3 0,-9 1,-16l10 0 0 0 0 0 0 0zm-52 -52l18 29c7,11 13,22 13,41l0 24c0,19 -12,39 -32,60 -15,14 -29,19 -41,19 -19,0 -40,-6 -65,-17l3 -7c8,2 17,4 28,4 36,0 72,-26 88,-58 2,-4 3,-7 3,-9 0,-4 -2,-8 -4,-11 -9,-17 -19,-33 -30,-47 6,-9 12,-18 18,-27l2 0 0 0 0 0 0 0z"/>
  <polygon class="fil3" points="1980,1622 1723,1622 1751,1451 1952,1451 "/>
  <polygon class="fil4" points="1963,1515 1741,1515 1751,1451 1952,1451 "/>
  <polygon class="fil4" points="1959,1493 1744,1493 1751,1451 1952,1451 "/>
  <path class="fil5" d="M2452 721l0 729c0,24 -19,43 -43,43l-1115 0c-24,0 -43,-19 -43,-43l0 -729c0,-24 19,-43 43,-43l1115 0c24,0 43,19 43,43l0 0z"/>
  <path class="fil6" d="M2409 749l0 600c0,12 -10,21 -21,21l-1072 0c-12,0 -21,-10 -21,-21l0 -600c0,-12 10,-21 21,-21l1072 0c12,0 21,10 21,21l0 0z"/>
  <path class="fil5" d="M2088 1708l-472 0c-12,0 -21,-10 -21,-21l0 -21c0,-24 19,-43 43,-43l429 0c24,0 43,19 43,43l0 21c0,12 -10,21 -21,21l0 0z"/>
  <path class="fil7" d="M2302 1451l86 0c12,0 21,-10 21,-21 0,-12 -10,-21 -21,-21l-86 0c-12,0 -21,10 -21,21 0,12 10,21 21,21l0 0z"/>
  <circle class="fil6" cx="2216" cy="1429" r="21"/>
  <rect class="fil3" x="1352" y="761" width="999" height="577" rx="35" ry="51"/>
  <path class="fil6" d="M1737 1271c-6,0 -12,-2 -16,-7l-92 -92c-9,-9 -9,-23 0,-32l92 -92c9,-9 23,-9 32,0 9,9 9,23 0,32l-75 75 75 75c9,9 9,23 0,32 -4,4 -10,7 -16,7l0 0 0 0z"/>
  <path class="fil6" d="M1966 1271c-6,0 -12,-2 -16,-7 -9,-9 -9,-23 0,-32l75 -75 -75 -75c-9,-9 -9,-23 0,-32 9,-9 23,-9 32,0l92 92c9,9 9,23 0,32l-92 92c-4,4 -10,7 -16,7l0 0 0 0z"/>
  <path class="fil6" d="M1829 1271c-2,0 -4,0 -6,-1 -12,-3 -20,-16 -17,-28l46 -183c3,-12 16,-20 28,-17 12,3 20,16 17,28l-46 183c-3,10 -12,17 -22,17l0 0z"/>
  <circle class="fil8 str0" cx="1852" cy="686" r="310"/>
  <path class="fil9" d="M1627 693c0,-5 0,-10 0,-15 0,0 0,-1 0,-1 0,-9 1,-18 3,-26 2,-9 4,-18 7,-27 5,-12 11,-22 21,-31 7,-6 16,-11 25,-13 6,-1 12,-2 18,-2 50,0 100,0 151,0 0,0 1,0 1,0 0,-5 0,-10 0,-16 -36,0 -73,0 -109,0 0,-1 0,-1 0,-2 0,-16 0,-32 0,-49 0,0 0,-1 0,-1 0,-2 0,-4 0,-6 1,-7 5,-14 11,-19 6,-6 14,-10 21,-13 12,-5 24,-7 37,-9 9,-1 19,-2 28,-2 0,0 1,0 1,0 6,0 12,0 17,0 0,0 1,0 1,0 11,0 21,1 32,3 10,2 20,4 30,8 10,4 19,9 26,16 6,6 11,13 13,22 1,4 1,8 1,12 0,33 0,66 0,99 0,5 -1,11 -2,16 -3,13 -10,24 -22,32 -11,7 -24,11 -37,11 -36,0 -71,0 -107,0 -7,0 -14,1 -21,2 -13,3 -23,10 -30,20 -9,12 -12,26 -13,41 0,18 0,35 0,53 0,0 0,1 0,1 -1,0 -1,0 -1,0 -13,0 -25,0 -38,0 -2,0 -5,0 -7,-1 -10,-2 -19,-7 -26,-14 -9,-8 -14,-18 -19,-28 -4,-9 -6,-18 -8,-28 -2,-9 -2,-17 -3,-26 0,-2 0,-5 0,-7l0 0 0 0zm164 -197l0 0c-11,0 -20,9 -20,20 0,11 9,20 20,20 11,0 20,-9 20,-20 0,-11 -9,-20 -20,-20l0 0 0 0z"/>
  <path class="fil10" d="M2076 655c0,20 0,41 0,61 0,2 -1,3 -1,5 -1,9 -4,17 -7,26 -4,12 -11,22 -20,31 -9,8 -20,13 -32,15 -4,1 -8,0 -13,0 -50,0 -100,0 -150,0 0,0 -1,0 -1,0 0,5 0,10 0,16 36,0 73,0 109,0 0,0 0,1 0,1 0,17 0,35 0,52 0,2 0,4 -1,5 -2,8 -6,14 -12,20 -8,7 -17,11 -27,14 -14,4 -27,7 -41,8 -8,1 -17,1 -25,1 -11,0 -21,0 -32,-1 -6,-1 -13,-2 -19,-3 -11,-2 -21,-5 -31,-10 -9,-5 -17,-11 -23,-19 -4,-6 -7,-12 -7,-20 0,-3 0,-5 0,-8 0,-32 0,-64 0,-96 0,-6 0,-11 2,-17 3,-13 10,-24 22,-32 12,-8 24,-11 38,-11 36,0 71,0 107,0 7,0 14,-1 21,-2 12,-3 22,-9 29,-19 9,-12 13,-26 13,-40 0,-18 0,-36 0,-54 0,0 0,-1 0,-2 1,0 1,0 2,0 12,0 24,0 36,0 8,0 15,2 22,5 10,5 18,13 24,23 9,14 13,30 16,46 0,2 1,4 1,6l0 0 0 0zm-162 221l0 0c11,0 20,-9 20,-20 0,-11 -9,-20 -20,-20 -11,0 -20,9 -20,20 0,11 9,20 20,20z"/>
 </g>
</svg>
