<?xml version="1.0" encoding="UTF-8"?>
<!DOCTYPE svg PUBLIC "-//W3C//DTD SVG 1.0//EN" "http://www.w3.org/TR/2001/REC-SVG-20010904/DTD/svg10.dtd">
<!-- Creator: CorelDRAW 2017 -->
<svg xmlns="http://www.w3.org/2000/svg" xml:space="preserve" width="356px" height="200px" version="1.0" shape-rendering="geometricPrecision" text-rendering="geometricPrecision" image-rendering="optimizeQuality" fill-rule="evenodd" clip-rule="evenodd"
viewBox="0 0 35600 20025"
 xmlns:xlink="http://www.w3.org/1999/xlink">
 <g id="Layer_x0020_1">
  <metadata id="CorelCorpID_0Corel-Layer"/>
  <g id="_1925854439792">
   <path fill="#E6E7E8" d="M0 0l35600 0 0 20025 -35600 0 0 -20025z"/>
   <path fill="#373435" fill-opacity="0.078431" d="M10572 20025l-2 0 -115 0 -16 0 -53 0 -12 0 -15 0 -77 0 -1 0 -33 0 -1 0 -17 0 -7 0 -17 0 -19 0 -30 0 -7 0 -36 0 -16 0 -3 0 -71 0 -53 0 -4 0 -16 0 -18 0 -15 0 -5 0 -4 0 -1 0 -35 0 -15 0 -15 0 -16 0 -10 0 -29 0 -34 0 -6 0 -4 0 -2 0 -13 0 -14 0 -7 0 -50 0 0 0 -20 0 -1 0 0 0 -35 0 -1 0 -2 0 -24 0 -31 0 -26 0 -10 0 -35 0 -150 0 -93 0 -7 0 -29 0 -45 0 -23 0 -12 0 -7 0 -60 0 -9 0 -15 0 -12 0 -8 0 -8 0 -5 0 -44 0 -2 0 -17 0 -1 0 -20 0 -40 0 -6 0 -12 0 -1 0 -15 0 -3 0 -15 0 -33 0 -33 0 -19 0 -3 0 -33 0 -32 0 -11 0 -4 0 -22 0 -72 0 -25 0 -13 0 -51 0 -120 0 -4 0 -38 0 -28 0 -21 0 -6 0 -30 0 -34 0 -15 0 -19 0 -11 0 -5 0 -8 0 -8 0 -20 0 -3 0 -77 0 -44 0 -223 0 -4 0 -36 0 -53 0 -23 0 -14 0 -3 0 -2 0 -6 0 -40 0 -33 0 -21 0 -6 0 -19 0 -16 0 -85 0 -38 0 -12 0 -23 0 -15 0 -12 0 -173 0 -93 0 -41 0 -25 0 -64 0 -16 0 -46 0 -36 0 -1 0 -16 0 -16 0 -4 0 -38 0 -105 0 -270 0 -74 0 -41 0 -70 0 -34 0 -75 0 -30 0 -39 0 -145 0 -36 0 -154 0 -4 0 -34 0 -4 0 -112 0 -35 0 -1 0 -1 0 -31 0 -5 0 -5 0 -127 0 -11 0 -74 0 -94 0 -27 0 -40 0 -41 0 -22 0 -10 0 -7 0 -24 0 -2 0 -35 0 -88 0 -16 0 -13 0 -1 0 -3 0 -21 0 -9 0 -15 0 -37 0 -15 0 -39 0 -54 0 -11 0 -36 0 -24 0 -140 0 -21 0 -20 0 -101 0 -13 0 -24 0 -12 0 -85 0 -41 0 -53 0 -234 0 -12 0 -27 0 -9 0 -25 0 -124 0 -36 0 0 0 -25 0 -34 0 -20 0 -39 0 -61 0 -167 0 -40 0 -168 0 -1 0 -7 0 -13 0 -20 0 -5 0 -15 0 -51 0 -39 0 -3 0 -33 0 -54 0 -43 0 -93 0 -301 0 -125 0 -55 0 -38 0 -3 0 -86 0 -2 0 -18 0 -37 0 -36 0 -39 0 -91 0 -105 0 -46 0 -34 0 -9 0 -82 0 -23 0 -15 0 -53 0 -248 0 -216 0 -179 0 -37 0 -172 0 -41 0 -140 0 -41 0 -338 0 0 -308 0 -190 0 -35 0 -39 0 -43 0 -317 0 -39 0 -300 0 -185 0 -40 0 -838 0 -10 0 -100 0 -88 0 -3 0 -93 0 -40 0 -586 0 -42 0 -46 0 -89 0 -16 0 -116 11710 -12069 -35 43 -27 49 -16 54 -6 57 0 16 148 -153 29 -23 34 -18 37 -11 41 -4 10732 0 353 -364 -12 15 -9 16 -5 18 -2 18 2 18 5 17 9 17 10 13 66 -68 412 -407 296 296 811 -835 -11 13 -8 16 -5 16 -1 18 0 94 91 -94 583 0 0 696 93 19 92 24 90 29 88 35 85 40 82 44 79 49 76 54 514 -514 412 407 -520 537 36 60 8 15 69 -71 471 -471 -535 551 25 46 36 71 31 73 29 74 24 76 21 78 16 80 723 0 0 583 -89 91 89 0 19 -1 17 -5 16 -8 13 -11 -798 823 203 203 -455 469 0 24 6 3 9 3 9 3 9 1 10 0 8 0 8 -1 9 -3 9 -3 8 -4 8 -4 7 -5 7 -6 412 -412 -519 535 0 7232 894 427 0 0 -181 187 223 -107 12 -6 10 -8 -4660 4803 -8 0 -120 0 -1 0 -214 0 -238 0 -10 0 -26 0 -1 0 -69 0 -24 0 -49 0 -47 0 -89 0 -119 0 -44 0 -88 0 -10 0 -39 0 -90 0 -3 0 -37 0 -54 0 -88 0 -4 0 -231 0 -96 0 -37 0 -266 0 -19 0 -36 0 -91 0 -33 0 -61 0 -30 0 -38 0 -518 0 -93 0 -37 0 -2522 0 -39 0 -179 0 -490 0 -33 0 -97 0 -93 0 -1042 0 -39 0 -179 0 -371 0 -17 0 -16 0 -54 0 -32 0 -13 0 -86 0 -88 0 -6 0 -12 0 -39 0 -76 0 -19 0 -41 0 -74 0 -8 0 -2 0 -36 0 -1 0 -61 0 -33 0 -36 0 -49 0 -40 0 -41 0 -54 0 -5 0 -12 0 -16 0 -1 0 -20 0 0 0 -16 0 -77 0 -11 0 -22 0 -5 0 -7 0 -22 0 -24 0 -38 0 -36 0 -3 0 -17 0 -16 0 -53 0 -16 0 -39 0 -42 0 -47 0 -16 0 -22 0 -3 0 -8 0 -7 0 -14 0 -22 0 -6 0 -7 0 -19 0 -8 0 -30 0 -21 0 -14 0 -6 0 -9 0 -14 0 -36 0 -15 0 -23 0 -27 0 -15 0 -24 0 -30 0 -327 0 -36 0 -6 0 -13 0 -51 0 -24 0 -1 0 -3 0 -12 0 -1 0 -5 0 -21 0 -27 0 -82 0 -33 0 -37 0 -60 0 -80 0 -120 0 -68 0 -40 0 -14 0 -117 0 -11 0 -63 0 -55 0 -14 0 -58 0 -11 0 -14 0 -17 0 -108 0 -9 0 -94 0 -17 0 -3 0 -14 0 -21 0 -133 0 -38 0 -14 0 -27 0 -35 0 -34 0 -17 0 -16 0z"/>
   <g>
    <path fill="#F8F9FA" fill-rule="nonzero" d="M11717 5415l0 9613c2880,0 10785,0 14575,0l0 -9613c-4074,0 -12108,0 -14575,0z"/>
    <path fill="#414042" fill-rule="nonzero" d="M11813 14937l14388 0 0 -9431 -14388 0 0 9431zm14479 182l-14575 0c-48,0 -91,-38 -91,-91l0 -9613c0,-54 43,-97 91,-97l14575 0c53,0 96,43 96,97l0 9613c0,53 -43,91 -96,91z"/>
    <path fill="#B3C1C5" fill-rule="nonzero" d="M26292 4596c0,-107 -86,-193 -193,-193l-14184 0c-112,0 -198,86 -198,193l0 819c2467,0 10501,0 14575,0l0 -819z"/>
    <path fill="#414042" fill-rule="nonzero" d="M11813 5318l14388 0 0 -722c0,-54 -48,-102 -102,-102l-14184 0c-59,0 -102,48 -102,102l0 722 0 0zm14479 188l-14575 0c-48,0 -91,-43 -91,-91l0 -819c0,-156 128,-289 289,-289l14184 0c155,0 289,133 289,289l0 819c0,48 -43,91 -96,91z"/>
    <path fill="#414042" fill-rule="nonzero" d="M13274 14289c-53,0 -96,-43 -96,-102l0 -8676c0,-54 43,-96 96,-96 49,0 91,42 91,96l0 8676c0,59 -42,102 -91,102z"/>
    <path fill="#70D5DA" fill-rule="nonzero" d="M15667 8551l-1611 0c-54,0 -96,-37 -96,-91 0,-53 42,-91 96,-91l1611 0c54,0 96,38 96,91 0,54 -42,91 -96,91z"/>
    <path fill="#AEBDC1" fill-rule="nonzero" d="M24959 8551l-8853 0c-48,0 -91,-37 -91,-91 0,-53 43,-91 91,-91l8853 0c48,0 91,38 91,91 0,54 -43,91 -91,91z"/>
    <path fill="#70D5DA" fill-rule="nonzero" d="M14543 9954l-487 0c-54,0 -96,-43 -96,-91 0,-54 42,-97 96,-97l487 0c54,0 96,43 96,97 0,48 -42,91 -96,91z"/>
    <path fill="#AEBDC1" fill-rule="nonzero" d="M20340 9954l-5305 0c-53,0 -96,-43 -96,-91 0,-54 43,-97 96,-97l5305 0c48,0 91,43 91,97 0,48 -43,91 -91,91z"/>
    <path fill="#F7941E" fill-rule="nonzero" d="M15886 11345l-1830 0c-54,0 -96,-37 -96,-91 0,-53 42,-91 96,-91l1830 0c54,0 97,38 97,91 0,54 -43,91 -97,91z"/>
    <path fill="#70D5DA" fill-rule="nonzero" d="M17112 11345l-498 0c-53,0 -96,-37 -96,-91 0,-53 43,-91 96,-91l498 0c48,0 91,38 91,91 0,54 -43,91 -91,91z"/>
    <path fill="#AEBDC1" fill-rule="nonzero" d="M23417 11345l-5828 0c-54,0 -97,-37 -97,-91 0,-53 43,-91 97,-91l5828 0c54,0 91,38 91,91 0,54 -37,91 -91,91z"/>
    <path fill="#AEBDC1" fill-rule="nonzero" d="M19189 12694l-5133 0c-54,0 -96,-43 -96,-96 0,-49 42,-91 96,-91l5133 0c48,0 91,42 91,91 0,53 -43,96 -91,96z"/>
    <path fill="#F7941E" fill-rule="nonzero" d="M19922 12694l-487 0c-53,0 -96,-43 -96,-96 0,-49 43,-91 96,-91l487 0c48,0 91,42 91,91 0,53 -43,96 -91,96z"/>
    <path fill="#F7941E" fill-rule="nonzero" d="M15667 14112l-1611 0c-54,0 -96,-42 -96,-96 0,-48 42,-91 96,-91l1611 0c54,0 96,43 96,91 0,54 -42,96 -96,96z"/>
    <path fill="#70D5DA" fill-rule="nonzero" d="M16620 14112l-514 0c-48,0 -91,-42 -91,-96 0,-48 43,-91 91,-91l514 0c53,0 96,43 96,91 0,54 -43,96 -96,96z"/>
    <path fill="#AEBDC1" fill-rule="nonzero" d="M22711 14112l-5599 0c-53,0 -96,-42 -96,-96 0,-48 43,-91 96,-91l5599 0c48,0 91,43 91,91 0,54 -43,96 -91,96z"/>
    <path fill="#70D5DA" fill-rule="nonzero" d="M11818 14947l1355 0 0 -9436 -1355 0 0 9436z"/>
    <path fill="#70D5DA" fill-rule="nonzero" d="M16106 6303l-2050 0c-54,0 -96,-43 -96,-91 0,-53 42,-96 96,-96l2050 0c53,0 96,43 96,96 0,48 -43,91 -96,91z"/>
    <path fill="#F7941E" fill-rule="nonzero" d="M17037 6303l-562 0c-53,0 -91,-43 -91,-91 0,-53 38,-96 91,-96l562 0c54,0 91,43 91,96 0,48 -37,91 -91,91z"/>
    <path fill="#AEBDC1" fill-rule="nonzero" d="M19676 7267l-5133 0c-48,0 -91,-43 -91,-97 0,-48 43,-91 91,-91l5133 0c54,0 96,43 96,91 0,54 -42,97 -96,97z"/>
    <path fill="#F7941E" fill-rule="nonzero" d="M20677 7267l-460 0c-54,0 -97,-43 -97,-97 0,-48 43,-91 97,-91l460 0c53,0 96,43 96,91 0,54 -43,97 -96,97z"/>
    <path fill="white" fill-rule="nonzero" d="M12718 6303l-637 0c-48,0 -91,-43 -91,-91 0,-53 43,-96 91,-96l637 0c53,0 96,43 96,96 0,48 -43,91 -96,91z"/>
    <path fill="white" fill-rule="nonzero" d="M12718 7267l-637 0c-48,0 -91,-43 -91,-97 0,-48 43,-91 91,-91l637 0c53,0 96,43 96,91 0,54 -43,97 -96,97z"/>
    <path fill="white" fill-rule="nonzero" d="M12718 8551l-637 0c-48,0 -91,-37 -91,-91 0,-53 43,-91 91,-91l637 0c53,0 96,38 96,91 0,54 -43,91 -96,91z"/>
    <path fill="white" fill-rule="nonzero" d="M12718 9954l-637 0c-48,0 -91,-43 -91,-91 0,-54 43,-97 91,-97l637 0c53,0 96,43 96,97 0,48 -43,91 -96,91z"/>
    <path fill="white" fill-rule="nonzero" d="M12718 11388l-637 0c-48,0 -91,-43 -91,-96 0,-48 43,-91 91,-91l637 0c53,0 96,42 96,91 0,53 -43,96 -96,96z"/>
    <path fill="white" fill-rule="nonzero" d="M12718 12694l-637 0c-48,0 -91,-43 -91,-96 0,-49 43,-91 91,-91l637 0c53,0 96,42 96,91 0,53 -43,96 -96,96z"/>
    <path fill="white" fill-rule="nonzero" d="M12718 14112l-637 0c-48,0 -91,-42 -91,-96 0,-48 43,-91 91,-91l637 0c53,0 96,43 96,91 0,54 -43,96 -96,96z"/>
    <path fill="#B3C1C5" fill-rule="nonzero" d="M27277 5805l0 -583 -723 0c-37,-214 -123,-412 -236,-589l525 -530 -412 -407 -514 514c-198,-150 -433,-251 -685,-294l0 -696 -583 0 0 701c-241,43 -466,145 -659,289l-514 -514 -412 407 530 530c-118,177 -198,375 -235,589l-723 0 0 583 723 0c32,182 96,354 187,514l-578 578 407 412 546 -546c203,172 455,295 728,348l0 685 583 0 0 -679c236,-43 455,-134 648,-268l455 460 412 -412 -455 -455c128,-187 219,-401 262,-637l723 0 0 0z"/>
    <path fill="#414042" fill-rule="nonzero" d="M24740 7705l396 0 0 -588c0,-48 32,-86 80,-91 219,-43 428,-123 610,-252 38,-27 86,-21 118,11l390 391 279 -279 -391 -390c-32,-33 -37,-81 -11,-118 129,-182 209,-380 252,-600 5,-42 43,-75 91,-75l632 0 0 -396 -632 0c-48,0 -86,-32 -91,-75 -37,-203 -112,-390 -225,-562 -21,-37 -16,-85 16,-117l461 -461 -284 -278 -444 450c-33,32 -86,37 -124,10 -192,-144 -417,-241 -647,-278 -48,-11 -80,-48 -80,-91l0 -600 -396 0 0 605c0,43 -33,81 -75,91 -225,43 -434,134 -621,273 -38,27 -86,22 -118,-10l-450 -450 -278 278 460 466c32,27 38,75 11,112 -107,172 -182,359 -219,562 -11,43 -49,75 -91,75l-627 0 0 396 627 0c42,0 80,33 91,75 32,172 91,332 176,482 22,37 11,80 -16,112l-514 514 279 279 476 -477c38,-32 91,-37 128,-5 199,166 434,278 686,326 42,6 75,43 75,91l0 594 0 0zm492 188l-584 0c-53,0 -90,-43 -90,-97l0 -610c-231,-53 -445,-155 -632,-294l-482 482c-37,32 -96,32 -134,0l-412 -412c-37,-38 -37,-97 0,-129l530 -530c-64,-128 -112,-262 -144,-407l-648 0c-48,0 -91,-37 -91,-91l0 -583c0,-48 43,-91 91,-91l648 0c37,-171 101,-332 192,-487l-476 -471c-38,-38 -38,-97 0,-134l412 -412c32,-32 91,-32 128,0l461 460c171,-112 358,-198 557,-241l0 -626c0,-48 37,-91 90,-91l584 0c48,0 91,43 91,91l0 616c209,48 407,134 583,251l461 -460c37,-32 96,-32 133,0l407 412c38,38 38,96 0,134l-471 471c91,150 156,316 193,487l648 0c53,0 91,43 91,91l0 583c0,54 -38,91 -91,91l-648 0c-43,193 -118,370 -219,536l401 401c37,32 37,91 0,129l-412 412c-16,16 -43,26 -64,26l0 0c-27,0 -49,-10 -70,-26l-401 -402c-166,102 -348,177 -541,220l0 605c0,53 -43,96 -91,96l0 0z"/>
    <path fill="white" fill-rule="nonzero" d="M25735 5516c0,428 -348,782 -781,782 -429,0 -782,-354 -782,-782 0,-433 353,-781 782,-781 433,0 781,348 781,781z"/>
    <path fill="#414042" fill-rule="nonzero" d="M24954 4826c-380,0 -686,310 -686,690 0,380 306,685 686,685 380,0 690,-305 690,-685 0,-380 -310,-690 -690,-690zm0 1563c-482,0 -873,-391 -873,-873 0,-482 391,-878 873,-878 481,0 877,396 877,878 0,482 -396,873 -877,873z"/>
    <path fill="#414042" fill-rule="nonzero" d="M9801 13176c-48,0 -86,-38 -86,-86l0 -1552c0,-11 0,-327 214,-546 134,-134 311,-203 535,-203l1253 0c48,0 91,42 91,91 0,48 -43,85 -91,85l-1253 0c-176,0 -310,48 -406,150 -166,166 -166,423 -166,423l0 1552c0,48 -43,86 -91,86l0 0z"/>
    <path fill="#6C6C6C" fill-rule="nonzero" d="M25532 15665l0 -1023 -6980 0 0 1023 6980 0z"/>
    <path fill="#414042" fill-rule="nonzero" d="M18648 15574l6793 0 0 -841 -6793 0 0 841zm6884 187l-6980 0c-48,0 -91,-43 -91,-96l0 -1023c0,-53 43,-91 91,-91l6980 0c53,0 91,38 91,91l0 1023c0,53 -38,96 -91,96z"/>
    <path fill="#AEBDC1" fill-rule="nonzero" d="M18498 14642l-412 0c-123,0 -219,102 -219,225l0 573c0,128 96,225 219,225l412 0c22,0 38,0 54,-6l0 -1011c-16,0 -32,-6 -54,-6l0 0z"/>
    <path fill="#414042" fill-rule="nonzero" d="M18086 14733c-69,0 -128,59 -128,134l0 573c0,75 59,134 128,134l375 0 0 -841 -375 0 0 0zm412 1028l-412 0c-171,0 -315,-145 -315,-321l0 -573c0,-177 144,-316 315,-316l412 0c27,0 49,0 81,11 37,11 69,48 69,86l0 1011c0,43 -32,80 -69,91 -32,6 -54,11 -81,11z"/>
    <path fill="#D3DBDD" fill-rule="nonzero" d="M25532 15665l578 0 0 -1023 -578 0 0 1023z"/>
    <path fill="#414042" fill-rule="nonzero" d="M25623 15574l390 0 0 -841 -390 0 0 841zm487 187l-578 0c-54,0 -91,-43 -91,-96l0 -1023c0,-53 37,-91 91,-91l578 0c48,0 91,38 91,91l0 1023c0,53 -43,96 -91,96z"/>
    <path fill="#F3F5F6" fill-rule="nonzero" d="M27186 15156l0 0 -1076 -514 0 1023 1076 -509 0 0z"/>
    <path fill="#414042" fill-rule="nonzero" d="M26201 14787l0 733 771 -364 -771 -369zm-91 974c-22,0 -38,-5 -54,-16 -27,-16 -43,-48 -43,-80l0 -1023c0,-32 16,-59 43,-80 27,-16 64,-16 91,-5l1081 513c33,17 54,49 54,86 0,32 -21,64 -54,80l-1081 514c-11,6 -27,11 -37,11l0 0z"/>
    <path fill="none" fill-rule="nonzero" d="M25066 15156l-680 0"/>
    <path fill="#414042" fill-rule="nonzero" d="M25066 15247l-680 0c-48,0 -91,-43 -91,-91 0,-53 43,-96 91,-96l680 0c53,0 91,43 91,96 0,48 -38,91 -91,91z"/>
    <path fill="none" fill-rule="nonzero" d="M20896 15156l-2344 0"/>
    <path fill="#414042" fill-rule="nonzero" d="M20896 15247l-2344 0c-48,0 -91,-43 -91,-91 0,-53 43,-96 91,-96l2344 0c54,0 97,43 97,96 0,48 -43,91 -97,91z"/>
    <path fill="#DAE1E3" fill-rule="nonzero" d="M8323 16805l7729 0 0 -3297 -7729 0 0 3297z"/>
    <path fill="#414042" fill-rule="nonzero" d="M8420 16708l7541 0 0 -3109 -7541 0 0 3109zm7632 188l-7729 0c-48,0 -91,-43 -91,-91l0 -3297c0,-54 43,-97 91,-97l7729 0c54,0 97,43 97,97l0 3297c0,48 -43,91 -97,91z"/>
    <path fill="#414042" fill-rule="nonzero" d="M14902 15708l-777 0c-53,0 -91,-43 -91,-97 0,-48 38,-91 91,-91l686 0 0 -824c0,-54 42,-97 91,-97 53,0 96,43 96,97l0 915c0,54 -43,97 -96,97z"/>
    <path fill="#414042" fill-rule="nonzero" d="M12450 16270l-2789 0c-48,0 -91,-43 -91,-92 0,-53 43,-96 91,-96l2789 0c54,0 96,43 96,96 0,49 -42,92 -96,92z"/>
    <path fill="#414042" fill-rule="nonzero" d="M13344 16270l-471 0c-48,0 -91,-43 -91,-92 0,-53 43,-96 91,-96l471 0c53,0 96,43 96,96 0,49 -43,92 -96,92z"/>
    <path fill="#414042" fill-rule="nonzero" d="M14281 16270l-546 0c-48,0 -91,-43 -91,-92 0,-53 43,-96 91,-96l546 0c48,0 91,43 91,96 0,49 -43,92 -91,92z"/>
    <path fill="#414042" fill-rule="nonzero" d="M9249 16270l-487 0c-48,0 -91,-43 -91,-92 0,-53 43,-96 91,-96l487 0c48,0 91,43 91,96 0,49 -42,92 -91,92z"/>
    <path fill="#414042" fill-rule="nonzero" d="M9249 14139l-487 0c-48,0 -91,-37 -91,-91 0,-53 43,-91 91,-91l487 0c48,0 91,38 91,91 0,54 -42,91 -91,91z"/>
    <path fill="#414042" fill-rule="nonzero" d="M10406 14139l-745 0c-48,0 -90,-37 -90,-91 0,-53 42,-91 90,-91l745 0c48,0 90,38 90,91 0,54 -42,91 -90,91z"/>
    <path fill="#414042" fill-rule="nonzero" d="M14538 14139l-3672 0c-54,0 -97,-37 -97,-91 0,-53 43,-91 97,-91l3672 0c48,0 91,38 91,91 0,54 -43,91 -91,91z"/>
    <path fill="#414042" fill-rule="nonzero" d="M15619 14139l-685 0c-54,0 -97,-37 -97,-91 0,-53 43,-91 97,-91l685 0c53,0 96,38 96,91 0,54 -43,91 -96,91z"/>
    <path fill="#414042" fill-rule="nonzero" d="M9308 14744l-546 0c-48,0 -91,-37 -91,-91 0,-54 43,-91 91,-91l546 0c48,0 91,37 91,91 0,54 -43,91 -91,91z"/>
    <path fill="#414042" fill-rule="nonzero" d="M10577 14744l-594 0c-49,0 -91,-37 -91,-91 0,-54 42,-91 91,-91l594 0c48,0 91,37 91,91 0,54 -43,91 -91,91z"/>
    <path fill="#414042" fill-rule="nonzero" d="M11915 14744l-594 0c-48,0 -91,-37 -91,-91 0,-54 42,-91 91,-91l594 0c48,0 91,37 91,91 0,54 -43,91 -91,91z"/>
    <path fill="#414042" fill-rule="nonzero" d="M9314 15542l-546 0c-49,0 -91,-43 -91,-97 0,-48 42,-91 91,-91l546 0c48,0 91,43 91,91 0,54 -43,97 -91,97z"/>
    <path fill="#414042" fill-rule="nonzero" d="M10582 15542l-594 0c-48,0 -91,-43 -91,-97 0,-48 43,-91 91,-91l594 0c54,0 91,43 91,91 0,54 -37,97 -91,97z"/>
    <path fill="#414042" fill-rule="nonzero" d="M11920 15542l-594 0c-48,0 -91,-43 -91,-97 0,-48 43,-91 91,-91l594 0c54,0 91,43 91,91 0,54 -37,97 -91,97z"/>
    <path fill="#414042" fill-rule="nonzero" d="M13248 14744l-589 0c-54,0 -96,-37 -96,-91 0,-54 42,-91 96,-91l589 0c53,0 96,37 96,91 0,54 -43,91 -96,91z"/>
    <path fill="#414042" fill-rule="nonzero" d="M13258 15542l-594 0c-53,0 -91,-43 -91,-97 0,-48 38,-91 91,-91l594 0c49,0 91,43 91,91 0,54 -42,97 -91,97z"/>
    <path fill="#AEBDC1" fill-rule="nonzero" d="M8323 13508l7729 0 0 -418 -7729 0 0 418z"/>
    <path fill="#414042" fill-rule="nonzero" d="M8420 13411l7541 0 0 -230 -7541 0 0 230zm7632 188l-7729 0c-48,0 -91,-43 -91,-91l0 -418c0,-53 43,-96 91,-96l7729 0c54,0 97,43 97,96l0 418c0,48 -43,91 -97,91z"/>
    <path fill="#9FA0A2" fill-rule="nonzero" d="M16052 16805l429 0 0 -3297 -429 0 0 3297z"/>
    <path fill="#414042" fill-rule="nonzero" d="M16149 16708l235 0 0 -3109 -235 0 0 3109zm332 188l-429 0c-48,0 -91,-43 -91,-91l0 -3297c0,-54 43,-97 91,-97l429 0c48,0 91,43 91,97l0 3297c0,48 -43,91 -91,91z"/>
    <path fill="#9FA0A2" fill-rule="nonzero" d="M16052 13508l429 0 0 -418 -429 0 0 418z"/>
    <path fill="#414042" fill-rule="nonzero" d="M16149 13411l235 0 0 -230 -235 0 0 230zm332 188l-429 0c-48,0 -91,-43 -91,-91l0 -418c0,-53 43,-96 91,-96l429 0c48,0 91,43 91,96l0 418c0,48 -43,91 -91,91z"/>
   </g>
   <path fill="#373435" fill-opacity="0.031373" d="M2082 17547c68,103 112,202 155,312 32,64 49,183 199,183 44,0 107,-14 163,-45 63,-33 111,-83 136,-159l60 -202 146 -72 10 10c-20,76 -25,149 -25,206 0,169 146,233 262,233 68,0 129,-33 129,-95 0,-80 -34,-216 -78,-338 68,-68 136,-136 214,-191l12 6c34,144 53,286 53,381 0,93 -41,196 -75,264 -70,132 -194,237 -344,237 -114,0 -241,-57 -328,-163l-5 0c-82,102 -209,194 -412,194l-63 0c-10,134 -39,229 -83,314 -121,237 -480,404 -818,404 -470,0 -706,-272 -706,-633 0,-223 73,-431 185,-578l92 38c-70,134 -117,261 -117,385 0,338 275,499 592,499 294,0 658,-187 724,-404 -25,-237 -114,-349 -250,-565 41,-72 94,-144 160,-221l12 0zm5421 -1274c99,62 196,136 291,220 -53,75 -119,143 -201,203 -95,-77 -190,-143 -287,-213 66,-74 131,-146 197,-210zm51 926c-160,0 -291,105 -291,183 0,167 320,219 703,217 -48,-196 -216,-400 -412,-400zm-359 895c208,0 390,-6 529,-41 155,-40 286,-118 286,-172 0,-14 0,-31 -5,-45 -87,8 -187,8 -274,8 -282,0 -498,-64 -583,-222 -21,-44 -36,-93 -36,-149 0,-153 66,-303 182,-406 97,-85 204,-138 313,-138 197,0 354,158 464,408 60,136 101,293 101,491 0,132 -36,243 -118,326 -153,148 -435,204 -867,204l-196 0 0 0 -51 0c-107,0 -184,-19 -245,-66l-10 0c3,25 5,49 5,72 0,97 -32,221 -97,320 -192,286 -400,410 -580,410 -182,0 -405,-70 -606,-161l36 -70c65,27 155,45 279,45 325,0 752,-313 805,-618 -12,-25 -34,-58 -65,-93 -95,-113 -155,-208 -211,-307 48,-95 92,-171 133,-240l17 -2c139,283 265,446 546,446l44 0 0 0 204 0zm-1408 299c24,-130 26,-276 26,-413l0 -202c0,-377 -48,-926 -87,-1283 68,-74 163,-160 238,-218l22 6c51,450 63,971 63,1452 0,126 -5,249 -17,340 -7,114 -73,200 -214,332l-31 -14zm-1449 -596c7,177 94,317 398,317 189,0 349,-49 526,-134 32,-14 49,-33 49,-49 0,-111 -85,-258 -228,-392 -139,-126 -323,-237 -495,-311 -59,-25 -78,-52 -78,-77 0,-51 68,-158 124,-235l19 -2c197,103 417,256 580,427 148,157 240,316 240,489 0,128 -39,249 -102,361 -216,109 -446,192 -674,192 -277,0 -466,-130 -466,-436 0,-33 0,-84 12,-150l95 0zm-501 -503l172 278c63,103 122,215 122,392l0 227c0,183 -117,379 -306,573 -148,132 -279,188 -400,188 -180,0 -386,-56 -624,-159l27 -70c75,20 162,37 269,37 342,-2 692,-252 852,-557 19,-35 26,-68 26,-91 0,-35 -19,-74 -34,-109 -87,-165 -184,-315 -291,-454 56,-88 112,-173 173,-257l14 2z"/>
  </g>
 </g>
</svg>
